<svg xmlns="http://www.w3.org/2000/svg" viewBox="0 0 207.76 107.62"><defs><style>.cls-1{fill:#2e3192;stroke:#7cc242;stroke-miterlimit:10;stroke-width:2px;}</style></defs><g id="Layer_2" data-name="Layer 2"><g id="Layer_2-2" data-name="Layer 2"><path class="cls-1" d="M82.3,74a33.32,33.32,0,0,1-2.25,12.09,27.63,27.63,0,0,1-7.2,10.41,36.58,36.58,0,0,1-13,7.36q-8.1,2.79-19.8,2.79H4.15q0-7.78.45-12.52a16.21,16.21,0,0,1,2.17-7.36A8.29,8.29,0,0,1,12,83.27a42.65,42.65,0,0,1,9.6-.84h18q6.45,0,10-.17a12.67,12.67,0,0,0,5.1-1A3.42,3.42,0,0,0,56.5,78.7,28.58,28.58,0,0,0,56.8,74a5.75,5.75,0,0,0-1.65-4.32,13.19,13.19,0,0,0-4-2.62,28.47,28.47,0,0,0-4.88-1.61q-2.55-.58-4.5-.93-6.45-1.53-13.57-3A57.39,57.39,0,0,1,15,57a28.17,28.17,0,0,1-10-8Q1,43.85,1,35.39,1,19.48,11.5,10.85T42.85,2.22H79a123.65,123.65,0,0,1-.52,12.69,16.42,16.42,0,0,1-2.25,7.28,8.11,8.11,0,0,1-5.18,3.3,45.57,45.57,0,0,1-9.3.76H42.25q-5.85,0-9,.17a11.08,11.08,0,0,0-4.65,1,3.37,3.37,0,0,0-1.72,2.71,46.38,46.38,0,0,0-.23,5.25,5.22,5.22,0,0,0,1.43,3.38,8.59,8.59,0,0,0,4.42,2.54q4.65,1.35,10.2,2.45t11.1,2.45A81.69,81.69,0,0,1,64.45,49.6a34.72,34.72,0,0,1,9.07,5.24A23.18,23.18,0,0,1,82.3,74Z"/><path class="cls-1" d="M181,105.23H169c-1.3,0-2.33,0-3.08-.08s-1.42-.09-2-.09a16.14,16.14,0,0,1-7.35-1.69,12.9,12.9,0,0,1-4.35-3.89,21.2,21.2,0,0,1-2.7-5.59q-1-3.21-2.4-6.93H108.83a66,66,0,0,1-5,11.93,12.16,12.16,0,0,1-5.63,5.24,20.72,20.72,0,0,1-8.7,1.27q-5.33-.16-14.47-.17L108.38,15a63.24,63.24,0,0,1,3.07-7.53,11.43,11.43,0,0,1,3.45-4.23A11.55,11.55,0,0,1,120,1.42,60.26,60.26,0,0,1,127.88,1h13.8Zm-53.1-74.11L116.33,64.79h23.25Z"/><path class="cls-1" d="M193.41,106a17.4,17.4,0,0,1-7.88-2.2,8.57,8.57,0,0,1-3.67-5.42,43.94,43.94,0,0,1-.9-10.07V2.48q8.1,0,13.2.33a17.63,17.63,0,0,1,7.87,2,8.48,8.48,0,0,1,3.75,5.25,38.72,38.72,0,0,1,1,9.81v86.47Q198.51,106.37,193.41,106Z"/></g></g></svg>